<svg version="1.1" xmlns="http://www.w3.org/2000/svg" xmlns:xlink="http://www.w3.org/1999/xlink" width="12" height="12"><defs/><g><path fill="rgb(254,228,137)" stroke="none" paint-order="stroke fill markers" fill-rule="evenodd" d=" M 5.0942535400390625 1.802693247795105 C 5.479347229003906 1.4176621437072754 6.1036224365234375 1.4176621437072754 6.488716125488281 1.802693247795105 C 6.488716125488281 1.802693247795105 9.867469787597656 5.181471943855286 9.867469787597656 5.181471943855286 C 10.2525634765625 5.5667712688446045 10.2525634765625 6.190921306610107 9.867469787597656 6.576086521148682 C 9.482376098632812 6.960983514785767 8.857986450195312 6.960983514785767 8.472892761230469 6.576086521148682 C 8.472892761230469 6.576086521148682 5.0942535400390625 3.1975760459899902 5.0942535400390625 3.1975760459899902 C 4.709159851074219 2.812410831451416 4.709159851074219 2.1881266832351685 5.0942535400390625 1.802693247795105 Z M 5.094825744628906 9.990270376205444 C 5.47991943359375 10.375569701194763 6.104194641113281 10.375569701194763 6.489402770996094 9.990270376205444 C 6.489402770996094 9.990270376205444 9.8680419921875 6.611759901046753 9.8680419921875 6.611759901046753 C 10.253135681152344 6.226594686508179 10.253135681152344 5.602310538291931 9.8680419921875 5.217413544654846 C 9.482948303222656 4.831845998764038 8.858558654785156 4.831845998764038 8.473579406738281 5.217413544654846 C 8.473579406738281 5.217413544654846 5.094825744628906 8.596058130264282 5.094825744628906 8.596058130264282 C 4.7097320556640625 8.980955123901367 4.7097320556640625 9.60510516166687 5.094825744628906 9.990270376205444 Z M 1.2908096313476562 5.946437954902649 C 1.2908096313476562 5.401815414428711 1.7323226928710938 4.960592031478882 2.276947021484375 4.960592031478882 C 2.276947021484375 4.960592031478882 9.179336547851562 4.960592031478882 9.179336547851562 4.960592031478882 C 9.723960876464844 4.960592031478882 10.165473937988281 5.401815414428711 10.165473937988281 5.946437954902649 C 10.165473937988281 6.491596937179565 9.723960876464844 6.9328203201293945 9.179336547851562 6.9328203201293945 C 9.179336547851562 6.9328203201293945 2.276947021484375 6.9328203201293945 2.276947021484375 6.9328203201293945 C 1.7323226928710938 6.9328203201293945 1.2908096313476562 6.491596937179565 1.2908096313476562 5.946437954902649 Z"/></g></svg>