<svg xmlns="http://www.w3.org/2000/svg" viewBox="0 0 18 17" width="18" height="17">
	<style>
		tspan { white-space:pre }
		.shp0 { fill: #fde389 } 
	</style>
	<path id="Cart" class="shp0" d="M17 2.62L14.93 8.5L14.86 8.5C14.69 8.79 14.4 9 14.05 9L7.55 9L7.8 10L14 10C14.55 10 15 10.45 15 11C15 11.55 14.55 12 14 12L7 12C6.45 12 6 11.55 6 11C6 10.94 6.02 10.89 6.03 10.83L4.08 3L3.5 3L3.5 2.85C3.35 2.93 3.19 3 3 3L2 3C1.45 3 1 2.55 1 2C1 1.45 1.45 1 2 1L3 1C3.19 1 3.35 1.06 3.5 1.15L3.5 1L5.5 1L16 1C16.55 1 17 1.45 17 2C17 2.23 16.91 2.43 16.78 2.6L17 2.62ZM6.05 3L7.05 7L13.48 7L14.9 3L6.05 3ZM7.5 14C8.33 14 9 14.67 9 15.5C9 16.33 8.33 17 7.5 17C6.67 17 6 16.33 6 15.5C6 14.67 6.67 14 7.5 14ZM13.5 14C14.33 14 15 14.67 15 15.5C15 16.33 14.33 17 13.5 17C12.67 17 12 16.33 12 15.5C12 14.67 12.67 14 13.5 14Z" />
</svg>