<?xml version="1.0"?>
<svg xmlns="http://www.w3.org/2000/svg" xmlns:xlink="http://www.w3.org/1999/xlink" xmlns:svgjs="http://svgjs.com/svgjs" version="1.1" width="50" height="50" x="0" y="0" viewBox="0 0 512 512" style="enable-background:new 0 0 512 512" xml:space="preserve" class=""><g><g xmlns="http://www.w3.org/2000/svg" id="filled_outline" data-name="filled outline"><path d="m167.205 64v8h80v-8a40 40 0 0 0 -40-40 40 40 0 0 0 -40 40z" fill="#fbb540" data-original="#fbb540" style=""/><path d="m136 164 24-12 16 32v24h72v-56l32-24-8-40-96 16h-24l-40 21.714z" fill="#ffb229" data-original="#e82f3e" style="" class=""/><path d="m112 125.714-20.477 11.7a30 30 0 0 0 -14.4 19.539l-13.123 59.047-16 16-8 24 32 14.657a1.856 1.856 0 0 0 2.686-1.657l5.314-13h16v-24l16-56 24-12z" fill="#fdc9a6" data-original="#fdc9a6" style=""/><path d="m376 120-16-8-29.54-23.632a30 30 0 0 0 -23.673-6.168l-34.787 5.8 8 40 32-8 24 24 8 16h32l8-32z" fill="#fdc9a6" data-original="#fdc9a6" style=""/><path d="m175.2 72h64a0 0 0 0 1 0 0v32a32 32 0 0 1 -32 32 32 32 0 0 1 -32-32v-32a0 0 0 0 1 0 0z" fill="#fdc9a6" data-original="#fdc9a6" style=""/><path d="m176 208v24a32 32 0 0 0 32 32h104l32 48 32-24-33.435-55.725a50 50 0 0 0 -42.875-24.275z" fill="#0296e5" data-original="#0296e5" style=""/><path d="m344 312 16 24 56-24-8-24h-32z" fill="#cbcbcb" data-original="#cbcbcb" style="" class=""/><path d="m208 264 40 40-40 40 32 32 58.189-50.915a28.45 28.45 0 0 0 8.253-12.41 28.442 28.442 0 0 0 -6.871-29.1l-19.571-19.575z" fill="#0276b4" data-original="#0276b4" style="" class=""/><path d="m208 344-24 24 40 48 24-8-8-32z" fill="#cbcbcb" data-original="#cbcbcb" style="" class=""/><rect fill="#ffb229" height="272" rx="48" transform="matrix(.578 .816 -.816 .578 473.148 -136.167)" width="96" x="320.164" y="253.161" data-original="#e82f3e" style="" class=""/><path d="m398.623 335.597 34.663 48.643 26.121-18.486-34.664-48.643z" fill="#961b20" data-original="#961b20" style=""/><path d="m309.618 459.018-26.181-37.149 26.121-18.485 26.18 37.149z" fill="#961b20" data-original="#961b20" style=""/><g fill="#b0d2fd"><path d="m112 376a8 8 0 0 1 -5.354-13.946l40-36a8 8 0 0 1 10.7 11.892l-40 36a7.973 7.973 0 0 1 -5.346 2.054z" fill="#b0d2fd" data-original="#b0d2fd" style="" class=""/><path d="m376 228a8 8 0 0 1 -5.354-13.946l40-36a8 8 0 0 1 10.7 11.892l-40 36a7.973 7.973 0 0 1 -5.346 2.054z" fill="#b0d2fd" data-original="#b0d2fd" style="" class=""/><path d="m408 240a8 8 0 0 1 -5.354-13.946l8-7.2a8 8 0 0 1 10.7 11.892l-8 7.2a7.973 7.973 0 0 1 -5.346 2.054z" fill="#b0d2fd" data-original="#b0d2fd" style="" class=""/><path d="m432 218.4a8 8 0 0 1 -5.354-13.946l16-14.4a8 8 0 1 1 10.7 11.892l-16 14.4a7.973 7.973 0 0 1 -5.346 2.054z" fill="#b0d2fd" data-original="#b0d2fd" style="" class=""/><path d="m176 318.4a8 8 0 0 1 -5.354-13.946l16-14.4a8 8 0 0 1 10.7 11.892l-16 14.4a7.973 7.973 0 0 1 -5.346 2.054z" fill="#b0d2fd" data-original="#b0d2fd" style="" class=""/><path d="m112 328a8 8 0 0 1 -5.126-14.146l48-40a8 8 0 0 1 10.244 12.292l-48 40a7.971 7.971 0 0 1 -5.118 1.854z" fill="#b0d2fd" data-original="#b0d2fd" style="" class=""/><path d="m48 160a8 8 0 0 1 -8-8 52.739 52.739 0 0 1 23.532-43.969l4.03-2.688a8 8 0 0 1 8.876 13.314l-4.031 2.687a36.768 36.768 0 0 0 -16.407 30.656 8 8 0 0 1 -8 8z" fill="#b0d2fd" data-original="#b0d2fd" style="" class=""/><path d="m344 64a7.976 7.976 0 0 1 -5.657-2.343 32.127 32.127 0 0 0 -30.354-8.408l-10.049 2.512a8 8 0 1 1 -3.88-15.522l10.048-2.512a48.206 48.206 0 0 1 45.549 12.616 8 8 0 0 1 -5.657 13.657z" fill="#b0d2fd" data-original="#b0d2fd" style="" class=""/></g><rect fill="#fbb540" height="48" rx="16" transform="matrix(.578 .816 -.816 .578 453.149 -66.57)" width="32" x="274.907" y="380.633" data-original="#fbb540" style=""/><rect fill="#fbb540" height="48" rx="16" transform="matrix(.578 .816 -.816 .578 511.406 -74.685)" width="32" x="311.878" y="432.874" data-original="#fbb540" style=""/><rect fill="#fbb540" height="48" rx="16" transform="matrix(.578 .816 -.816 .578 434.89 -197.649)" width="32" x="392.45" y="297.448" data-original="#fbb540" style=""/><rect fill="#fbb540" height="48" rx="16" transform="matrix(.578 .816 -.816 .578 493.147 -205.764)" width="32" x="429.421" y="349.69" data-original="#fbb540" style=""/><path d="m36.668 263.273 31.922 14.627a9.863 9.863 0 0 0 13.867-6.765l2.915-7.135h10.628a8 8 0 0 0 8-8v-22.879l14.726-51.539 37.7-18.849 11.574 23.156v46.111a40.048 40.048 0 0 0 36.526 39.84l32.161 32.16-58.344 58.343a8 8 0 0 0 -.489 10.779l40 48a8 8 0 0 0 8.676 2.467l18.587-6.195a56 56 0 0 0 83.565 68.314l124.068-87.8 13.06-9.243 6.527-4.618a56 56 0 0 0 -56.037-96.457l-.707-2.12a8 8 0 0 0 -7.593-5.47h-27.47l-31.1-51.84a58.293 58.293 0 0 0 -49.74-28.16h-43.69v-44l27.507-20.63 26.039-6.51 19.879 19.879 7.42 14.839a8 8 0 0 0 7.155 4.422h32a8 8 0 0 0 7.761-6.06l8-32a8 8 0 0 0 -2.1-7.6l-8-8a7.986 7.986 0 0 0 -2.079-1.5l-15.242-7.621-28.878-23.1a38.052 38.052 0 0 0 -29.986-7.81l-58.267 9.711v-4.02a8 8 0 0 0 8-8v-8a48 48 0 0 0 -96 0v8a8 8 0 0 0 8 8v16h-15.209a8 8 0 0 0 -3.817.969l-60.63 33.5a38.078 38.078 0 0 0 -18.241 24.75l-12.612 56.771-14.357 14.353a7.992 7.992 0 0 0 -1.932 3.127l-8 24a8 8 0 0 0 4.257 9.803zm216.989 46.384a8 8 0 0 0 0-11.314l-26.343-26.343h49.373l17.228 17.228a20.439 20.439 0 0 1 -.994 29.836l-52.556 45.987-21.051-21.051zm-27.007 97.027-31.827-38.193 13.177-13.178 24.776 24.777 5.666 22.663zm22.3-27.882 54.51-47.7a36.439 36.439 0 0 0 1.771-53.19l-5.918-5.912h8.406l29.625 44.438 11.745 17.618-85.107 60.229a55.925 55.925 0 0 0 -9.137 8.11zm207.624-3.202-13.069 9.249a8 8 0 0 1 -9.235-13.065l13.06-9.243a8 8 0 0 1 9.244 13.059zm-18.487-26.119-13.06 9.243-9.242-13.061 13.059-9.242zm-27.725-39.181a8 8 0 0 1 9.24 13.062l-13.06 9.243a8 8 0 0 1 -9.254-13.053zm-31.53 22.314a23.983 23.983 0 0 0 19.039 17.117c.436.074.871.116 1.307.167l16.341 23.09c-.1.425-.21.845-.284 1.279a23.953 23.953 0 0 0 9.815 23.645l-67.55 47.802a23.95 23.95 0 0 0 -20.35-17.29l-16.34-23.085c.1-.425.209-.845.283-1.278a23.915 23.915 0 0 0 -9.821-23.641zm-99.077 70.115 13.062-9.243a7.938 7.938 0 0 1 4.6-1.472 8.106 8.106 0 0 1 1.367.117 8 8 0 0 1 3.272 14.416l-13.056 9.237a8 8 0 0 1 -11.151-1.909 8.009 8.009 0 0 1 1.906-11.151zm31.545 16.871 9.242 13.06-13.06 9.243-9.243-13.061zm5.424 35.363 13.061-9.242a8 8 0 1 1 9.242 13.06l-13.059 9.242a8 8 0 1 1 -9.244-13.06zm-53.042 8.137a40.059 40.059 0 0 1 -1.3-44.25 24.016 24.016 0 0 0 17.949 14.057c.436.075.872.117 1.308.168l16.329 23.074a23.945 23.945 0 0 0 3.792 19.207 24.046 24.046 0 0 0 3.231 3.687 40.061 40.061 0 0 1 -41.309-15.943zm183.063-164.2a40 40 0 0 1 27.2 60.569 23.986 23.986 0 0 0 -19.261-14.23l-16.32-23.069a23.979 23.979 0 0 0 -7.029-22.91 39.58 39.58 0 0 1 8.576-.944 40.439 40.439 0 0 1 6.834.584zm-44.391-2.539-2.307 1.632-37.893 26.817-7.3-10.951 23.813-17.859h23.567zm-66.649-59.969 29.723 49.537-19.463 14.6-27.309-40.964a8 8 0 0 0 -6.656-3.565h-104a24.028 24.028 0 0 1 -24-24v-16h115.69a42.21 42.21 0 0 1 36.015 20.392zm-27.6-146.3a22.037 22.037 0 0 1 17.36 4.522l29.535 23.633a8 8 0 0 0 1.42.908l14.839 7.42 3.879 3.879-5.384 21.546h-20.81l-5.789-11.578a7.986 7.986 0 0 0 -1.5-2.079l-24-24a8 8 0 0 0 -7.6-2.1l-23.855 5.957-4.734-23.671zm-100.9-58.092a32.036 32.036 0 0 1 32 32h-64a32.036 32.036 0 0 1 32-32zm24 48v24a24 24 0 1 1 -48 0v-24zm-77.174 32h13.979a40 40 0 0 0 79.2-8v-3.757l18.469-3.078 5.493 27.46-27.972 20.975a8 8 0 0 0 -3.2 6.4v48h-56v-16a7.994 7.994 0 0 0 -.845-3.578l-16-32a8 8 0 0 0 -10.733-3.577l-17.5 8.751-15.622-24.914zm-99.039 124.321 14.665-14.664a8.006 8.006 0 0 0 2.153-3.922l13.121-59.045a22.044 22.044 0 0 1 10.561-14.329l13.809-7.89 15.241 24.314-16.12 8.06a8 8 0 0 0 -4.114 4.957l-16 56a8.013 8.013 0 0 0 -.308 2.198v16h-8a8 8 0 0 0 -7.405 4.972l-3.154 7.714-19.581-8.969z" fill="#000000" data-original="#000000" style="" class=""/><path d="m146.648 326.054-40 36a8 8 0 1 0 10.7 11.892l40-36a8 8 0 0 0 -10.7-11.892z" fill="#000000" data-original="#000000" style="" class=""/><path d="m421.946 178.648a8 8 0 0 0 -11.3-.594l-40 36a8 8 0 1 0 10.7 11.892l40-36a8 8 0 0 0 .6-11.298z" fill="#000000" data-original="#000000" style="" class=""/><path d="m410.648 218.854-8 7.2a8 8 0 1 0 10.7 11.892l8-7.2a8 8 0 0 0 -10.7-11.892z" fill="#000000" data-original="#000000" style="" class=""/><path d="m426.648 204.454a8 8 0 1 0 10.7 11.892l16-14.4a8 8 0 1 0 -10.7-11.892z" fill="#000000" data-original="#000000" style="" class=""/><path d="m181.352 316.346 16-14.4a8 8 0 0 0 -10.7-11.892l-16 14.4a8 8 0 1 0 10.7 11.892z" fill="#000000" data-original="#000000" style="" class=""/><path d="m166.146 274.878a8 8 0 0 0 -11.268-1.024l-48 40a8 8 0 0 0 10.244 12.292l48-40a8 8 0 0 0 1.024-11.268z" fill="#000000" data-original="#000000" style="" class=""/><path d="m48 160a8 8 0 0 0 8-8 36.768 36.768 0 0 1 16.407-30.656l4.031-2.687a8 8 0 0 0 -8.876-13.314l-4.03 2.688a52.739 52.739 0 0 0 -23.532 43.969 8 8 0 0 0 8 8z" fill="#000000" data-original="#000000" style="" class=""/><path d="m304.108 37.727-10.048 2.512a8 8 0 1 0 3.88 15.522l10.049-2.512a32.127 32.127 0 0 1 30.354 8.408 8 8 0 0 0 11.314-11.314 48.206 48.206 0 0 0 -45.549-12.616z" fill="#000000" data-original="#000000" style="" class=""/></g></g></svg>
