<?xml version="1.0"?>
<svg xmlns="http://www.w3.org/2000/svg" xmlns:xlink="http://www.w3.org/1999/xlink" xmlns:svgjs="http://svgjs.com/svgjs" version="1.1" width="512" height="512" x="0" y="0" viewBox="0 0 512 512" style="enable-background:new 0 0 512 512" xml:space="preserve" class=""><g>
<path xmlns="http://www.w3.org/2000/svg" style="" d="M256,0l-60,85.495l60,85.495c46.876,0,85.009,38.133,85.009,85.009s-38.133,85.01-85.009,85.01  l-60,85.495L256,512c141.166,0,256-114.834,256-256S397.166,0,256,0z" fill="#ffb229" data-original="#55d752" class=""/>
<path xmlns="http://www.w3.org/2000/svg" style="" d="M170.991,256c0-46.876,38.137-85.009,85.009-85.009V0C114.847,0,0,114.834,0,256s114.847,256,256,256  V341.009C209.128,341.009,170.991,302.876,170.991,256z" fill="#ffb229" data-original="#72fd6e" class=""/>
<path xmlns="http://www.w3.org/2000/svg" style="" d="M256,136l-30,34.991L256,201c30.329,0,55,24.671,55,55s-24.671,55-55,55l-30,30.009L256,376  c66.171,0,120-53.829,120-120S322.171,136,256,136z" fill="#707789" data-original="#707789" class=""/>
<path xmlns="http://www.w3.org/2000/svg" style="" d="M201,256c0-30.329,24.674-55,55-55v-65c-66.165,0-120,53.829-120,120s53.835,120,120,120v-65  C225.674,311,201,286.329,201,256z" fill="#9097a8" data-original="#9097a8" class=""/>
<g xmlns="http://www.w3.org/2000/svg">
	<path style="" d="M351.42,160.58v35.32H316.1C300.72,180.52,279.47,171,256,171l-30-25l30-25   C293.22,121,326.97,136.14,351.42,160.58z" fill="#202940" data-original="#202940"/>
	<path style="" d="M341,256l25-30l25,30c0,37.22-15.14,70.97-39.58,95.42H316.1V316.1   C331.48,300.72,341,279.47,341,256z" fill="#202940" data-original="#202940"/>
</g>
<g xmlns="http://www.w3.org/2000/svg">
	<path style="" d="M256,391l-30-25l30-25c23.47,0,44.72-9.52,60.1-24.9l35.32,35.32C326.97,375.86,293.22,391,256,391z   " fill="#384055" data-original="#384055" class=""/>
	<path style="" d="M391,256h-50c0-23.47-9.52-44.72-24.9-60.1l35.32-35.32C375.86,185.03,391,218.78,391,256z" fill="#384055" data-original="#384055" class=""/>
</g>
<g xmlns="http://www.w3.org/2000/svg">
	<path style="" d="M160.58,160.58v35.32h35.32c15.38-15.38,36.63-24.9,60.1-24.9v-50   C218.78,121,185.03,136.14,160.58,160.58z" fill="#4f5669" data-original="#4f5669" class=""/>
	<path style="" d="M171,256l-25-30l-25,30c0,37.22,15.14,70.97,39.58,95.42h35.32V316.1   C180.52,300.72,171,279.47,171,256z" fill="#4f5669" data-original="#4f5669" class=""/>
</g>
<g xmlns="http://www.w3.org/2000/svg">
	<path style="" d="M256,391v-50c-23.47,0-44.72-9.52-60.1-24.9l-35.32,35.32C185.03,375.86,218.78,391,256,391z" fill="#707789" data-original="#707789" class=""/>
	<path style="" d="M121,256h50c0-23.47,9.52-44.72,24.9-60.1l-35.32-35.32C136.14,185.03,121,218.78,121,256z" fill="#707789" data-original="#707789" class=""/>
</g>
<g xmlns="http://www.w3.org/2000/svg">
</g>
<g xmlns="http://www.w3.org/2000/svg">
</g>
<g xmlns="http://www.w3.org/2000/svg">
</g>
<g xmlns="http://www.w3.org/2000/svg">
</g>
<g xmlns="http://www.w3.org/2000/svg">
</g>
<g xmlns="http://www.w3.org/2000/svg">
</g>
<g xmlns="http://www.w3.org/2000/svg">
</g>
<g xmlns="http://www.w3.org/2000/svg">
</g>
<g xmlns="http://www.w3.org/2000/svg">
</g>
<g xmlns="http://www.w3.org/2000/svg">
</g>
<g xmlns="http://www.w3.org/2000/svg">
</g>
<g xmlns="http://www.w3.org/2000/svg">
</g>
<g xmlns="http://www.w3.org/2000/svg">
</g>
<g xmlns="http://www.w3.org/2000/svg">
</g>
<g xmlns="http://www.w3.org/2000/svg">
</g>
</g></svg>
