<svg width="20" height="60" xmlns="http://www.w3.org/2000/svg" xmlns:xlink="http://www.w3.org/1999/xlink" xmlns:svgjs="http://svgjs.com/svgjs" viewBox="0.346 0 14.308 47" fill="#4fcc3f"><svg xmlns="http://www.w3.org/2000/svg" width="15" height="47" viewBox="2.005 1.977 14.008 46.014"><path paint-order="stroke fill markers" fill-rule="evenodd" d="M15.806 46.3L3.019 24.602c-.228-.387-.597-.387-.825 0-.228.387-.228 1.014 0 1.4l12.787 21.7c.228.386.597.386.825 0 .228-.387.228-1.014 0-1.4zm.036-42.627L3.005 25.457c-.229.388-.6.388-.828 0-.23-.388-.23-1.017 0-1.406L15.013 2.267c.23-.387.6-.387.829 0 .228.389.228 1.018 0 1.406z"/></svg></svg>