<svg width="20" height="60" xmlns="http://www.w3.org/2000/svg" xmlns:xlink="http://www.w3.org/1999/xlink" xmlns:svgjs="http://svgjs.com/svgjs" viewBox="0.346 0 14.308 47" fill="#4fcc3f"><svg xmlns="http://www.w3.org/2000/svg" width="15" height="47" viewBox="1.987 2.008 14.008 46.014"><path paint-order="stroke fill markers" fill-rule="evenodd" d="M2.194 46.332l12.787-21.7c.228-.386.597-.386.825 0 .228.387.228 1.014 0 1.4l-12.787 21.7c-.228.387-.597.387-.825 0-.228-.387-.228-1.014 0-1.4zM2.158 3.704l12.837 21.784c.229.389.6.389.828 0 .23-.388.23-1.017 0-1.405L2.986 2.299c-.228-.388-.6-.388-.828 0-.228.388-.228 1.017 0 1.405z"/></svg></svg>