<svg version="1.1" xmlns="http://www.w3.org/2000/svg" xmlns:xlink="http://www.w3.org/1999/xlink" width="486" height="384"><defs/><g><path fill="rgb(247,250,251)" stroke="none" paint-order="stroke fill markers" fill-rule="evenodd" d=" M 336.0260696411133 1.366524577140808 C 364.5571060180664 1.366524577140808 390.32096099853516 13.035743117332458 408.4644241333008 31.785054683685303 C 431.0420150756836 27.418418407440186 452.3228759765625 19.46017014980316 471.44446563720703 8.432401895523071 C 464.04185485839844 30.892683744430542 448.3085174560547 49.74445569515228 427.8390426635742 61.664594888687134 C 447.8700942993164 59.304519176483154 467.04283905029297 54.161383390426636 484.8324508666992 46.47256302833557 C 471.4944763183594 65.76260793209076 454.7009582519531 82.74206387996674 435.30894470214844 96.31524848937988 C 435.49353790283203 100.43015944957733 435.5955047607422 104.59522771835327 435.5955047607422 108.74353218078613 C 435.5955047607422 235.9486358165741 335.77418518066406 382.63127076625824 153.2270736694336 382.63127076625824 C 97.19508361816406 382.63127076625824 45.007164001464844 366.6457073688507 1.1158676147460938 339.34524524211884 C 8.87164306640625 340.2730213403702 16.763946533203125 340.7112942934036 24.772293090820312 340.7112942934036 C 71.26071166992188 340.7112942934036 114.07317352294922 325.3336535692215 148.05056762695312 299.48413240909576 C 104.59769439697266 298.74276983737946 67.92315673828125 270.8876268863678 55.34278106689453 232.66091811656952 C 61.396820068359375 233.7901281118393 67.61931610107422 234.3980507850647 74.02709197998047 234.3980507850647 C 83.04698181152344 234.3980507850647 91.8321533203125 233.23437440395355 100.14617156982422 231.02544116973877 C 54.75432586669922 222.20566737651825 20.540496826171875 183.30585825443268 20.540496826171875 136.65017354488373 C 20.540496826171875 136.22866439819336 20.540496826171875 135.8231143951416 20.540496826171875 135.41930782794952 C 33.929168701171875 142.63632762432098 49.22339630126953 146.968363404274 65.51119995117188 147.47463035583496 C 38.868553161621094 130.19034135341644 21.350051879882812 100.7666425704956 21.350051879882812 67.3644231557846 C 21.350051879882812 49.70998930931091 26.25739288330078 33.16867220401764 34.788734436035156 19.004194617271423 C 83.72183990478516 77.1772848367691 156.85301971435547 115.50551521778107 239.3404312133789 119.55135929584503 C 237.63800811767578 112.51994836330414 236.76058959960938 105.10055589675903 236.76058959960938 97.63100612163544 C 236.76058959960938 44.44829988479614 281.19090270996094 1.366524577140808 336.0260696411133 1.366524577140808 C 390.8613510131836 1.366524577140808 336.0260696411133 1.366524577140808 336.0260696411133 1.366524577140808 M 484.8324508666992 46.47256302833557 C 484.8324508666992 46.47256302833557 484.9170227050781 46.47256302833557 484.9170227050781 46.47256302833557 C 484.9170227050781 46.47256302833557 484.8324508666992 46.47256302833557 484.8324508666992 46.47256302833557"/></g></svg>