<svg width="53" height="53" xmlns="http://www.w3.org/2000/svg" xmlns:xlink="http://www.w3.org/1999/xlink" xmlns:svgjs="http://svgjs.com/svgjs" fill="#fff"><svg xmlns="http://www.w3.org/2000/svg" width="53" height="53"><path paint-order="stroke fill markers" fill-rule="evenodd" d="M38.432 29.7a6.433 6.433 0 0 0 .943-3.325 6.5 6.5 0 0 0-6.5-6.5c-2.983 0-5.47 2.022-6.235 4.76a4.85 4.85 0 0 0-3.515-1.51A4.876 4.876 0 0 0 18.25 28c0 .584.12 1.138.308 1.656-.102-.009-.203-.031-.308-.031-1.795 0-3.25 2.268-3.25 4.062 0 1.795 1.455 4.063 3.25 4.063h19.5c1.795 0 3.25-2.268 3.25-4.063 0-1.56-1.101-3.673-2.568-3.988zM28 2C13.64 2 2 13.64 2 28s11.64 26 26 26 26-11.64 26-26S42.36 2 28 2zm0 47.937C15.884 49.937 6.063 40.116 6.063 28c0-12.116 9.82-21.938 21.937-21.938 12.116 0 21.937 9.822 21.937 21.938S40.117 49.937 28 49.937z"/></svg></svg>