<svg width="52" height="52" xmlns="http://www.w3.org/2000/svg" xmlns:xlink="http://www.w3.org/1999/xlink" xmlns:svgjs="http://svgjs.com/svgjs" fill="#fff"><svg xmlns="http://www.w3.org/2000/svg" width="52" height="52"><path paint-order="stroke fill markers" fill-rule="evenodd" d="M26.5 2C12.416 2 1 13.416 1 27.5S12.416 53 26.5 53 52 41.584 52 27.5 40.584 2 26.5 2zm0 47.015c-11.883 0-21.516-9.632-21.516-21.515 0-11.883 9.633-21.516 21.516-21.516S48.016 15.617 48.016 27.5 38.383 49.015 26.5 49.015zm9.563-34.265a3.188 3.188 0 0 0-3.188 3.187c0 .178.025.349.053.517L19 25.087a3.166 3.166 0 0 0-2.063-.775 3.188 3.188 0 0 0 0 6.375c.675 0 1.3-.215 1.817-.573l6.469 5.585a3.16 3.16 0 0 0-.318 1.363 3.188 3.188 0 1 0 3.188-3.187c-.691 0-1.328.225-1.85.6l-6.455-5.574c.208-.425.336-.897.336-1.401 0-.383-.078-.746-.202-1.087l13.654-6.502a3.167 3.167 0 0 0 2.486 1.214 3.188 3.188 0 0 0 0-6.375zM15.343 27.5c0-.878.717-1.594 1.595-1.594.877 0 1.593.716 1.593 1.594 0 .878-.716 1.594-1.593 1.594a1.597 1.597 0 0 1-1.594-1.594zm12.75 7.968a1.595 1.595 0 0 1 0 3.188 1.596 1.596 0 0 1-1.593-1.594c0-.879.716-1.594 1.594-1.594zm7.97-15.937c-.88 0-1.594-.716-1.594-1.594 0-.878.714-1.593 1.594-1.593.879 0 1.593.715 1.593 1.593s-.714 1.594-1.593 1.594z"/></svg></svg>