<svg width="26" height="26" xmlns="http://www.w3.org/2000/svg" xmlns:xlink="http://www.w3.org/1999/xlink" xmlns:svgjs="http://svgjs.com/svgjs" fill="#bcbcc4"><svg xmlns="http://www.w3.org/2000/svg" width="26" height="26"><path paint-order="stroke fill markers" fill-rule="evenodd" d="M14.5 2C7.596 2 2 7.596 2 14.5 2 21.403 7.596 27 14.5 27S27 21.403 27 14.5C27 7.596 21.404 2 14.5 2zm0 23.046c-5.825 0-10.547-4.721-10.547-10.546 0-5.825 4.722-10.547 10.547-10.547S25.047 8.675 25.047 14.5 20.325 25.046 14.5 25.046zm2.966-12.46h-2.174V11c0-.486.503-.6.738-.6h1.405V8.259l-1.61-.008c-2.196 0-2.698 1.597-2.698 2.62v1.716h-1.593v2.207h1.593v5.957h2.165v-5.957h1.839l.335-2.207z"/></svg></svg>