<svg width="127" height="127" xmlns="http://www.w3.org/2000/svg" xmlns:xlink="http://www.w3.org/1999/xlink" xmlns:svgjs="http://svgjs.com/svgjs" fill="#515553"><svg xmlns="http://www.w3.org/2000/svg" width="127" height="127"><path paint-order="stroke fill markers" fill-rule="evenodd" d="M65 2C30.205 2 2 30.204 2 65c0 34.795 28.205 63 63 63s63-28.205 63-63c0-34.796-28.205-63-63-63zm0 116.156c-29.359 0-53.156-23.798-53.156-53.156C11.844 35.64 35.64 11.843 65 11.843c29.358 0 53.156 23.798 53.156 53.157 0 29.358-23.798 53.156-53.156 53.156zm-6.152-84.657s23.498 15.75 20.737 37.407c0 0 7.886-1.969 5.768-14.997 0 0 7.84 11.166 7.647 21.09-.158 8.064-6.71 19.5-25.685 19.5 0 0 17.111-15.303-5.5-34.668 0 0-20.913 20.633-7.112 34.669 0 0-22.866-6.774-14.703-24.5 8.163-17.73 21.058-19.601 18.848-38.5z"/></svg></svg>