<svg width="46" height="46" xmlns="http://www.w3.org/2000/svg" xmlns:xlink="http://www.w3.org/1999/xlink" xmlns:svgjs="http://svgjs.com/svgjs" fill="#fff"><svg xmlns="http://www.w3.org/2000/svg" width="46" height="46"><path paint-order="stroke fill markers" fill-rule="evenodd" d="M23.5 2C11.073 2 1 12.073 1 24.5S11.073 47 23.5 47 46 36.927 46 24.5 35.927 2 23.5 2zm0 41.484c-10.485 0-18.984-8.499-18.984-18.984 0-10.485 8.499-18.985 18.984-18.985 10.485 0 18.984 8.5 18.984 18.985S33.985 43.484 23.5 43.484zm0-30.234c-6.213 0-11.25 5.037-11.25 11.25s5.037 11.25 11.25 11.25 11.25-5.037 11.25-11.25-5.037-11.25-11.25-11.25zm-9.808 11.953h5.037c.063 1.356.294 2.836.576 4.219h-4.317a9.749 9.749 0 0 1-1.296-4.22zm5.037-1.406h-5.037a9.747 9.747 0 0 1 1.296-4.219h4.317c-.282 1.383-.513 2.863-.576 4.219zm1.983-4.219h5.576c.283 1.384.513 2.866.577 4.219h-6.73c.064-1.353.294-2.835.577-4.219zm-.577 5.625h6.73c-.064 1.353-.294 2.833-.577 4.219h-5.576c-.283-1.386-.513-2.866-.577-4.22zm8.136 0h5.037a9.75 9.75 0 0 1-1.296 4.219h-4.317c.283-1.383.513-2.863.576-4.22zm0-1.406c-.063-1.356-.293-2.836-.576-4.219h4.317a9.748 9.748 0 0 1 1.296 4.219h-5.037zm2.759-5.625h-3.646a54.762 54.762 0 0 0-.806-3.016 9.876 9.876 0 0 1 4.452 3.016zm-5.97-3.38c.2.647.563 1.888.916 3.38h-4.952c.353-1.492.717-2.733.916-3.38a9.908 9.908 0 0 1 1.56-.136c.533 0 1.05.055 1.56.136zm-4.636.364a54.547 54.547 0 0 0-.808 3.016h-3.644a9.854 9.854 0 0 1 4.452-3.016zm-4.452 15.672h3.644c.295 1.247.598 2.318.806 3.016a9.864 9.864 0 0 1-4.45-3.016zm5.968 3.38c-.2-.647-.563-1.889-.916-3.38h4.952a54.85 54.85 0 0 1-.915 3.38c-.51.08-1.028.136-1.561.136-.533 0-1.05-.056-1.56-.136zm4.638-.364c.21-.698.512-1.769.807-3.016h3.643a9.876 9.876 0 0 1-4.45 3.016z"/></svg></svg>