<svg width="58" height="58" xmlns="http://www.w3.org/2000/svg" xmlns:xlink="http://www.w3.org/1999/xlink" xmlns:svgjs="http://svgjs.com/svgjs" fill="#fff"><svg xmlns="http://www.w3.org/2000/svg" width="58" height="58"><path paint-order="stroke fill markers" fill-rule="evenodd" d="M30.5 1C14.76 1 2 13.76 2 29.5S14.76 58 30.5 58 59 45.24 59 29.5 46.24 1 30.5 1zm0 52.547C17.219 53.547 6.453 42.78 6.453 29.5S17.22 5.453 30.5 5.453 54.547 16.219 54.547 29.5 43.78 53.547 30.5 53.547zm0-9.797a3.563 3.563 0 0 0 3.562-3.563h-7.125A3.563 3.563 0 0 0 30.5 43.75zm0-28.5c-5.902 0-10.688 4.785-10.688 10.687 0 4.206 2.436 7.835 5.97 9.578l1.155 2.891h7.125l1.155-2.89c3.533-1.744 5.97-5.373 5.97-9.579 0-5.902-4.785-10.687-10.687-10.687z"/></svg></svg>