<svg width="52" height="52" xmlns="http://www.w3.org/2000/svg" xmlns:xlink="http://www.w3.org/1999/xlink" xmlns:svgjs="http://svgjs.com/svgjs" fill="#fff"><svg xmlns="http://www.w3.org/2000/svg" width="52" height="52"><path paint-order="stroke fill markers" fill-rule="evenodd" d="M26.5 2C12.416 2 1 13.416 1 27.5S12.416 53 26.5 53 52 41.584 52 27.5 40.584 2 26.5 2zm0 47.016c-11.883 0-21.516-9.633-21.516-21.516S14.617 5.984 26.5 5.984 48.016 15.617 48.016 27.5 38.383 49.016 26.5 49.016zm0-11.633l-10.456-6.534-2.294 1.432L26.5 40.25l12.75-7.944-2.294-1.438L26.5 37.383zm0-4.817l-10.4-6.5-2.35 1.47 12.75 7.969 12.75-7.944-2.352-1.476L26.5 32.566zm-12.75-9.847l12.75 7.968 12.75-7.944L26.5 14.75l-12.75 7.969z"/></svg></svg>