<svg width="26" height="26" xmlns="http://www.w3.org/2000/svg" xmlns:xlink="http://www.w3.org/1999/xlink" xmlns:svgjs="http://svgjs.com/svgjs" fill="#bcbcc4"><svg xmlns="http://www.w3.org/2000/svg" width="26" height="26"><path paint-order="stroke fill markers" fill-rule="evenodd" d="M14.5 2C7.596 2 2 7.596 2 14.5 2 21.403 7.596 27 14.5 27S27 21.403 27 14.5C27 7.596 21.404 2 14.5 2zm0 23.046c-5.825 0-10.547-4.721-10.547-10.546 0-5.825 4.722-10.547 10.547-10.547S25.047 8.675 25.047 14.5 20.325 25.046 14.5 25.046zm5.407-10.532a5.572 5.572 0 0 0-5.573-5.572c-.287 0-.568.028-.843.07a3.166 3.166 0 0 0-2.063-.762 3.178 3.178 0 0 0-3.178 3.177c0 .717.24 1.376.64 1.907a5.572 5.572 0 0 0 6.597 6.632 3.162 3.162 0 0 0 2.085.784 3.178 3.178 0 0 0 2.265-5.403c.042-.274.07-.55.07-.833zm-2.973 2.427c-.218.312-.54.556-.963.732-.423.178-.924.266-1.503.266-.696 0-1.27-.12-1.721-.362a2.215 2.215 0 0 1-.78-.696c-.2-.29-.301-.572-.301-.845 0-.16.06-.296.18-.409a.643.643 0 0 1 .459-.17c.15 0 .279.044.382.133.104.088.193.219.266.392.09.207.187.378.291.517.104.139.251.253.44.342.189.09.438.135.744.135.424 0 .767-.09 1.031-.271.264-.181.397-.407.397-.679a.683.683 0 0 0-.214-.522 1.403 1.403 0 0 0-.553-.308c-.226-.07-.526-.146-.906-.225a7.116 7.116 0 0 1-1.27-.381 2.031 2.031 0 0 1-.812-.597c-.2-.253-.3-.565-.3-.938 0-.357.105-.673.317-.95.21-.276.517-.49.918-.638.4-.149.87-.223 1.412-.223.432 0 .806.05 1.122.147.315.099.577.23.785.393.208.164.36.336.457.515.096.18.144.355.144.525a.6.6 0 0 1-.18.423.603.603 0 0 1-.45.188c-.163 0-.287-.038-.372-.113a1.513 1.513 0 0 1-.276-.369 1.684 1.684 0 0 0-.462-.572c-.179-.137-.467-.205-.865-.205-.368 0-.664.074-.89.222-.227.149-.339.328-.339.537 0 .13.038.242.115.336a.94.94 0 0 0 .318.242c.133.068.27.12.408.16.137.038.365.094.682.168.397.085.756.18 1.078.283.322.102.596.228.822.374.226.148.402.334.528.56.127.225.19.5.19.828 0 .39-.11.743-.329 1.055z"/></svg></svg>