<svg width="46" height="46" xmlns="http://www.w3.org/2000/svg" xmlns:xlink="http://www.w3.org/1999/xlink" xmlns:svgjs="http://svgjs.com/svgjs" fill="#fff"><svg xmlns="http://www.w3.org/2000/svg" width="46" height="46"><path paint-order="stroke fill markers" fill-rule="evenodd" d="M24.5 2C12.073 2 2 12.073 2 24.5S12.073 47 24.5 47 47 36.927 47 24.5 36.927 2 24.5 2zm0 41.484c-10.485 0-18.984-8.5-18.984-18.984 0-10.485 8.499-18.984 18.984-18.984 10.485 0 18.984 8.499 18.984 18.984 0 10.485-8.499 18.984-18.984 18.984zm8.212-30.234l.225 3.958h-.563c-.11-.698-.258-1.195-.444-1.494a2.775 2.775 0 0 0-1.223-1.063c-.508-.228-1.18-.344-2.01-.344h-2.832V27.2c0 1.038.133 1.685.398 1.942.377.348.956.523 1.736.523h.698v.46H20.17v-.46h.712c.848 0 1.451-.216 1.807-.648.22-.265.327-.871.327-1.817V14.307H20.6c-.94 0-1.607.058-2.002.175-.514.158-.954.46-1.319.907-.366.45-.583 1.055-.653 1.819h-.564l.237-3.958h16.413zm.225 20.39l-2.812-2.109v1.406h-11.25v-1.406l-2.813 2.11 2.813 2.109v-1.406h11.25v1.406l2.812-2.11z"/></svg></svg>