<svg width="26" height="26" xmlns="http://www.w3.org/2000/svg" xmlns:xlink="http://www.w3.org/1999/xlink" xmlns:svgjs="http://svgjs.com/svgjs" fill="#bcbcc4"><svg xmlns="http://www.w3.org/2000/svg" width="26" height="26"><path paint-order="stroke fill markers" fill-rule="evenodd" d="M14.5 2C7.596 2 2 7.596 2 14.5 2 21.403 7.596 27 14.5 27S27 21.403 27 14.5C27 7.596 21.404 2 14.5 2zm0 23.046c-5.825 0-10.547-4.721-10.547-10.546 0-5.825 4.722-10.547 10.547-10.547S25.047 8.675 25.047 14.5 20.325 25.046 14.5 25.046zm6.25-14.7c-.21.125-.842.374-1.431.437.377-.22.937-.938 1.075-1.509-.363.25-1.197.614-1.61.614l.001.002a2.488 2.488 0 0 0-1.864-.86c-1.424 0-2.579 1.244-2.579 2.778 0 .213.024.42.066.619-1.932-.054-4.19-1.096-5.463-2.881-.781 1.458-.105 3.078.782 3.668-.303.026-.863-.036-1.126-.312-.018.967.414 2.248 1.989 2.713-.304.176-.84.126-1.074.087.083.818 1.145 1.886 2.305 1.886-.413.515-1.825 1.45-3.571 1.152a7.334 7.334 0 0 0 4.034 1.228c4.16 0 7.39-3.63 7.217-8.11l-.002-.015.002-.035-.002-.042c.379-.278.887-.77 1.251-1.42z"/></svg></svg>